<?xml version="1.0" encoding="UTF-8" standalone="no"?>
<!DOCTYPE svg PUBLIC "-//W3C//DTD SVG 1.1//EN"
 "http://www.w3.org/Graphics/SVG/1.1/DTD/svg11.dtd">
<!-- Generated by graphviz version 10.0.1 (20240210.2158)
 -->
<!-- Title: inner_002 Pages: 1 -->
<svg width="323pt" height="76pt"
 viewBox="0.00 0.00 323.25 75.75" xmlns="http://www.w3.org/2000/svg" xmlns:xlink="http://www.w3.org/1999/xlink">
<g id="graph0" class="graph" transform="scale(1 1) rotate(0) translate(4 71.75)">
<title>inner_002</title>
<polygon fill="white" stroke="none" points="-4,4 -4,-71.75 319.25,-71.75 319.25,4 -4,4"/>
<text text-anchor="middle" x="157.63" y="-50.45" font-family="Times New Roman,serif" font-size="14.00">ml&#45;tap&#45;architecture: inner view 2</text>
<!-- score -->
<g id="node1" class="node">
<title>score</title>
<path fill="#ffe6cc" stroke="black" d="M133,-40C133,-40 12,-40 12,-40 6,-40 0,-34 0,-28 0,-28 0,-16 0,-16 0,-10 6,-4 12,-4 12,-4 133,-4 133,-4 139,-4 145,-10 145,-16 145,-16 145,-28 145,-28 145,-34 139,-40 133,-40"/>
<text text-anchor="middle" x="72.5" y="-24.5" font-family="Helvetica,sans-Serif" font-size="10.00">valid alignment + score select</text>
<text text-anchor="middle" x="72.5" y="-12.5" font-family="Helvetica,sans-Serif" font-size="10.00">all 4 signed outputs checked</text>
</g>
<!-- fsm -->
<g id="node2" class="node">
<title>fsm</title>
<path fill="#ffe6cc" stroke="black" d="M303.25,-44C303.25,-44 201.75,-44 201.75,-44 195.75,-44 189.75,-38 189.75,-32 189.75,-32 189.75,-12 189.75,-12 189.75,-6 195.75,0 201.75,0 201.75,0 303.25,0 303.25,0 309.25,0 315.25,-6 315.25,-12 315.25,-12 315.25,-32 315.25,-32 315.25,-38 309.25,-44 303.25,-44"/>
<text text-anchor="middle" x="252.5" y="-30.5" font-family="Helvetica,sans-Serif" font-size="10.00">ml_trigger_fsm</text>
<text text-anchor="middle" x="252.5" y="-18.5" font-family="Helvetica,sans-Serif" font-size="10.00">threshold/refractory/pulse</text>
<text text-anchor="middle" x="252.5" y="-6.5" font-family="Helvetica,sans-Serif" font-size="10.00">&#45;&#45;&gt; trigger_out (internal)</text>
</g>
<!-- score&#45;&gt;fsm -->
<g id="edge1" class="edge">
<title>score&#45;&gt;fsm</title>
<path fill="none" stroke="black" d="M145.45,-22C156.12,-22 167.11,-22 177.81,-22"/>
<polygon fill="black" stroke="black" points="177.76,-25.5 187.76,-22 177.76,-18.5 177.76,-25.5"/>
<text text-anchor="middle" x="167.21" y="-13.45" font-family="Helvetica,sans-Serif" font-size="9.00">selected score + valid</text>
</g>
</g>
</svg>
