<?xml version="1.0" encoding="UTF-8" standalone="no"?>
<!DOCTYPE svg PUBLIC "-//W3C//DTD SVG 1.1//EN"
 "http://www.w3.org/Graphics/SVG/1.1/DTD/svg11.dtd">
<!-- Generated by graphviz version 10.0.1 (20240210.2158)
 -->
<!-- Title: task_recorder_timeline Pages: 1 -->
<svg width="1125pt" height="160pt"
 viewBox="0.00 0.00 1124.75 159.60" xmlns="http://www.w3.org/2000/svg" xmlns:xlink="http://www.w3.org/1999/xlink">
<g id="graph0" class="graph" transform="scale(1 1) rotate(0) translate(10.8 148.8)">
<title>task_recorder_timeline</title>
<!-- events -->
<g id="node1" class="node">
<title>events</title>
<path fill="#f7f9fc" stroke="#385170" d="M92.28,-138C92.28,-138 12,-138 12,-138 6,-138 0,-132 0,-126 0,-126 0,-114 0,-114 0,-108 6,-102 12,-102 12,-102 92.28,-102 92.28,-102 98.28,-102 104.28,-108 104.28,-114 104.28,-114 104.28,-126 104.28,-126 104.28,-132 98.28,-138 92.28,-138"/>
<text text-anchor="middle" x="52.14" y="-122.5" font-family="Arial" font-size="10.00">task_transition tap</text>
<text text-anchor="middle" x="52.14" y="-110.5" font-family="Arial" font-size="10.00">TaskTransitionEvent</text>
</g>
<!-- adapter -->
<g id="node3" class="node">
<title>adapter</title>
<path fill="#ede7f6" stroke="#5e4b8b" d="M322.31,-104C322.31,-104 216.53,-104 216.53,-104 210.53,-104 204.53,-98 204.53,-92 204.53,-92 204.53,-80 204.53,-80 204.53,-74 210.53,-68 216.53,-68 216.53,-68 322.31,-68 322.31,-68 328.31,-68 334.31,-74 334.31,-80 334.31,-80 334.31,-92 334.31,-92 334.31,-98 328.31,-104 322.31,-104"/>
<text text-anchor="middle" x="269.42" y="-88.5" font-family="Arial" font-size="10.00">TaskTimelineAdapter</text>
<text text-anchor="middle" x="269.42" y="-76.5" font-family="Arial" font-size="10.00">wire decode + host stamp</text>
</g>
<!-- events&#45;&gt;adapter -->
<g id="edge1" class="edge">
<title>events&#45;&gt;adapter</title>
<path fill="none" stroke="#476b8a" d="M104.7,-111.86C131.18,-107.68 163.93,-102.5 193.16,-97.89"/>
<polygon fill="#476b8a" stroke="#476b8a" points="193.35,-101.4 202.68,-96.38 192.26,-94.49 193.35,-101.4"/>
<text text-anchor="middle" x="154.41" y="-110.7" font-family="Arial" font-size="9.00">validated wire</text>
</g>
<!-- reference -->
<g id="node2" class="node">
<title>reference</title>
<path fill="#f7f9fc" stroke="#385170" d="M85.91,-70C85.91,-70 18.38,-70 18.38,-70 12.38,-70 6.38,-64 6.38,-58 6.38,-58 6.38,-46 6.38,-46 6.38,-40 12.38,-34 18.38,-34 18.38,-34 85.91,-34 85.91,-34 91.91,-34 97.91,-40 97.91,-46 97.91,-46 97.91,-58 97.91,-58 97.91,-64 91.91,-70 85.91,-70"/>
<text text-anchor="middle" x="52.14" y="-54.5" font-family="Arial" font-size="10.00">reference tap</text>
<text text-anchor="middle" x="52.14" y="-42.5" font-family="Arial" font-size="10.00">BroadbandFrame</text>
</g>
<!-- reference&#45;&gt;adapter -->
<g id="edge2" class="edge">
<title>reference&#45;&gt;adapter</title>
<path fill="none" stroke="#476b8a" d="M98.27,-59.13C125.73,-63.46 161.5,-69.11 193.15,-74.11"/>
<polygon fill="#476b8a" stroke="#476b8a" points="192.24,-77.51 202.66,-75.61 193.33,-70.6 192.24,-77.51"/>
<text text-anchor="middle" x="154.41" y="-74.7" font-family="Arial" font-size="9.00">frame identity</text>
</g>
<!-- integrity -->
<g id="node4" class="node">
<title>integrity</title>
<path fill="#fff5e6" stroke="#c9791c" d="M532.84,-104C532.84,-104 445.81,-104 445.81,-104 439.81,-104 433.81,-98 433.81,-92 433.81,-92 433.81,-80 433.81,-80 433.81,-74 439.81,-68 445.81,-68 445.81,-68 532.84,-68 532.84,-68 538.84,-68 544.84,-74 544.84,-80 544.84,-80 544.84,-92 544.84,-92 544.84,-98 538.84,-104 532.84,-104"/>
<text text-anchor="middle" x="489.33" y="-88.5" font-family="Arial" font-size="10.00">sequence + reference</text>
<text text-anchor="middle" x="489.33" y="-76.5" font-family="Arial" font-size="10.00">integrity checks</text>
</g>
<!-- adapter&#45;&gt;integrity -->
<g id="edge3" class="edge">
<title>adapter&#45;&gt;integrity</title>
<path fill="none" stroke="#476b8a" d="M334.62,-86C362.2,-86 394.42,-86 422.21,-86"/>
<polygon fill="#476b8a" stroke="#476b8a" points="421.91,-89.5 431.91,-86 421.91,-82.5 421.91,-89.5"/>
<text text-anchor="middle" x="384.06" y="-88.7" font-family="Arial" font-size="9.00">value records</text>
</g>
<!-- intervals -->
<g id="node5" class="node">
<title>intervals</title>
<path fill="#f7f9fc" stroke="#385170" d="M796.62,-104C796.62,-104 696.09,-104 696.09,-104 690.09,-104 684.09,-98 684.09,-92 684.09,-92 684.09,-80 684.09,-80 684.09,-74 690.09,-68 696.09,-68 696.09,-68 796.62,-68 796.62,-68 802.62,-68 808.62,-74 808.62,-80 808.62,-80 808.62,-92 808.62,-92 808.62,-98 802.62,-104 796.62,-104"/>
<text text-anchor="middle" x="746.36" y="-88.5" font-family="Arial" font-size="10.00">half&#45;open intervals</text>
<text text-anchor="middle" x="746.36" y="-76.5" font-family="Arial" font-size="10.00">[effective_i, effective_i+1)</text>
</g>
<!-- integrity&#45;&gt;intervals -->
<g id="edge4" class="edge">
<title>integrity&#45;&gt;intervals</title>
<path fill="none" stroke="#476b8a" d="M545.04,-86C582.28,-86 631.99,-86 672.57,-86"/>
<polygon fill="#476b8a" stroke="#476b8a" points="672.51,-89.5 682.51,-86 672.51,-82.5 672.51,-89.5"/>
<text text-anchor="middle" x="614.47" y="-88.7" font-family="Arial" font-size="9.00">only observed commits</text>
</g>
<!-- labels -->
<g id="node7" class="node">
<title>labels</title>
<path fill="#eaf6ec" stroke="#3d7a52" d="M1091.15,-63C1091.15,-63 956.12,-63 956.12,-63 950.12,-63 944.12,-57 944.12,-51 944.12,-51 944.12,-39 944.12,-39 944.12,-33 950.12,-27 956.12,-27 956.12,-27 1091.15,-27 1091.15,-27 1097.15,-27 1103.15,-33 1103.15,-39 1103.15,-39 1103.15,-51 1103.15,-51 1103.15,-57 1097.15,-63 1091.15,-63"/>
<text text-anchor="middle" x="1023.64" y="-47.5" font-family="Arial" font-size="10.00">HDF5 task labels</text>
<text text-anchor="middle" x="1023.64" y="-35.5" font-family="Arial" font-size="10.00">labeled | ambiguous | incomplete</text>
</g>
<!-- intervals&#45;&gt;labels -->
<g id="edge6" class="edge">
<title>intervals&#45;&gt;labels</title>
<path fill="none" stroke="#476b8a" d="M808.79,-76.85C845.22,-71.42 892.04,-64.45 932.59,-58.41"/>
<polygon fill="#476b8a" stroke="#476b8a" points="932.97,-61.89 942.35,-56.96 931.94,-54.97 932.97,-61.89"/>
<text text-anchor="middle" x="876.37" y="-74.7" font-family="Arial" font-size="9.00">boundary containment</text>
</g>
<!-- clocks -->
<g id="node6" class="node">
<title>clocks</title>
<path fill="#f7f9fc" stroke="#385170" d="M786.87,-36C786.87,-36 705.84,-36 705.84,-36 699.84,-36 693.84,-30 693.84,-24 693.84,-24 693.84,-12 693.84,-12 693.84,-6 699.84,0 705.84,0 705.84,0 786.87,0 786.87,0 792.87,0 798.87,-6 798.87,-12 798.87,-12 798.87,-24 798.87,-24 798.87,-30 792.87,-36 786.87,-36"/>
<text text-anchor="middle" x="746.36" y="-20.5" font-family="Arial" font-size="10.00">auxiliary affine clock</text>
<text text-anchor="middle" x="746.36" y="-8.5" font-family="Arial" font-size="10.00">interval ± epsilon</text>
</g>
<!-- clocks&#45;&gt;labels -->
<g id="edge5" class="edge">
<title>clocks&#45;&gt;labels</title>
<path fill="none" stroke="#476b8a" d="M799.13,-23.08C836.6,-26.75 888.2,-31.81 932.38,-36.15"/>
<polygon fill="#476b8a" stroke="#476b8a" points="931.93,-39.62 942.23,-37.11 932.62,-32.65 931.93,-39.62"/>
</g>
</g>
</svg>
