<?xml version="1.0" encoding="UTF-8" standalone="no"?>
<!DOCTYPE svg PUBLIC "-//W3C//DTD SVG 1.1//EN"
 "http://www.w3.org/Graphics/SVG/1.1/DTD/svg11.dtd">
<!-- Generated by graphviz version 10.0.1 (20240210.2158)
 -->
<!-- Title: inner_002 Pages: 1 -->
<svg width="231pt" height="68pt"
 viewBox="0.00 0.00 231.00 67.75" xmlns="http://www.w3.org/2000/svg" xmlns:xlink="http://www.w3.org/1999/xlink">
<g id="graph0" class="graph" transform="scale(1 1) rotate(0) translate(43.75 63.75)">
<title>inner_002</title>
<polygon fill="white" stroke="none" points="-43.75,4 -43.75,-63.75 187.25,-63.75 187.25,4 -43.75,4"/>
<text text-anchor="middle" x="71.75" y="-42.45" font-family="Times New Roman,serif" font-size="14.00">task&#45;state&#45;authority&#45;plan: inner view 2</text>
<!-- fusion -->
<g id="node1" class="node">
<title>fusion</title>
<path fill="#f7f9fc" stroke="#385170" d="M131.5,-36C131.5,-36 12,-36 12,-36 6,-36 0,-30 0,-24 0,-24 0,-12 0,-12 0,-6 6,0 12,0 12,0 131.5,0 131.5,0 137.5,0 143.5,-6 143.5,-12 143.5,-12 143.5,-24 143.5,-24 143.5,-30 137.5,-36 131.5,-36"/>
<text text-anchor="middle" x="71.75" y="-20.5" font-family="Arial" font-size="10.00">H&#45;22 host fusion/recorder</text>
<text text-anchor="middle" x="71.75" y="-8.5" font-family="Arial" font-size="10.00">raw clocks + aligned intervals</text>
</g>
</g>
</svg>
