<?xml version="1.0" encoding="UTF-8" standalone="no"?>
<!DOCTYPE svg PUBLIC "-//W3C//DTD SVG 1.1//EN"
 "http://www.w3.org/Graphics/SVG/1.1/DTD/svg11.dtd">
<!-- Generated by graphviz version 10.0.1 (20240210.2158)
 -->
<!-- Title: calibration_data Pages: 1 -->
<svg width="1374pt" height="132pt"
 viewBox="0.00 0.00 1373.50 131.50" xmlns="http://www.w3.org/2000/svg" xmlns:xlink="http://www.w3.org/1999/xlink">
<g id="graph0" class="graph" transform="scale(1 1) rotate(0) translate(4 127.5)">
<title>calibration_data</title>
<polygon fill="white" stroke="none" points="-4,4 -4,-127.5 1369.5,-127.5 1369.5,4 -4,4"/>
<!-- browser -->
<g id="node1" class="node">
<title>browser</title>
<polygon fill="none" stroke="black" points="169,-85.5 0,-85.5 0,-46 169,-46 169,-85.5"/>
<text text-anchor="middle" x="84.5" y="-68.2" font-family="Times New Roman,serif" font-size="14.00">Chrome: Reactions website</text>
<text text-anchor="middle" x="84.5" y="-52.45" font-family="Times New Roman,serif" font-size="14.00">Route B only</text>
</g>
<!-- bridge -->
<g id="node2" class="node">
<title>bridge</title>
<polygon fill="none" stroke="black" points="462.5,-85.5 311.5,-85.5 311.5,-46 462.5,-46 462.5,-85.5"/>
<text text-anchor="middle" x="387" y="-68.2" font-family="Times New Roman,serif" font-size="14.00">Terminal 3: bridge :9999</text>
<text text-anchor="middle" x="387" y="-52.45" font-family="Times New Roman,serif" font-size="14.00">Browser journal</text>
</g>
<!-- browser&#45;&gt;bridge -->
<g id="edge1" class="edge">
<title>browser&#45;&gt;bridge</title>
<path fill="none" stroke="black" d="M169.21,-65.75C209.92,-65.75 258.81,-65.75 299.85,-65.75"/>
<polygon fill="black" stroke="black" points="299.69,-69.25 309.69,-65.75 299.69,-62.25 299.69,-69.25"/>
<text text-anchor="middle" x="240.25" y="-68.2" font-family="Times New Roman,serif" font-size="14.00">TASK WebSocket</text>
</g>
<!-- app -->
<g id="node3" class="node">
<title>app</title>
<polygon fill="none" stroke="black" points="775.5,-123.5 599.75,-123.5 599.75,-84 775.5,-84 775.5,-123.5"/>
<text text-anchor="middle" x="687.62" y="-106.2" font-family="Times New Roman,serif" font-size="14.00">Terminal 2: NDJSON :18765</text>
<text text-anchor="middle" x="687.62" y="-90.45" font-family="Times New Roman,serif" font-size="14.00">+ running device task App</text>
</g>
<!-- bridge&#45;&gt;app -->
<g id="edge2" class="edge">
<title>bridge&#45;&gt;app</title>
<path fill="none" stroke="black" d="M433.73,-85.97C448.38,-91.52 464.86,-96.81 480.5,-99.75 515.18,-106.27 553.73,-108.36 588.02,-108.47"/>
<polygon fill="black" stroke="black" points="587.97,-111.97 597.96,-108.44 587.94,-104.97 587.97,-111.97"/>
<text text-anchor="middle" x="531.12" y="-110.2" font-family="Times New Roman,serif" font-size="14.00">Task requests</text>
</g>
<!-- raw -->
<g id="node4" class="node">
<title>raw</title>
<polygon fill="none" stroke="black" points="1073.5,-71.5 930,-71.5 930,-32 1073.5,-32 1073.5,-71.5"/>
<text text-anchor="middle" x="1001.75" y="-54.2" font-family="Times New Roman,serif" font-size="14.00">C++ raw recorder</text>
<text text-anchor="middle" x="1001.75" y="-38.45" font-family="Times New Roman,serif" font-size="14.00">Broadband + task taps</text>
</g>
<!-- bridge&#45;&gt;raw -->
<g id="edge5" class="edge">
<title>bridge&#45;&gt;raw</title>
<path fill="none" stroke="black" d="M462.96,-63.11C503.46,-61.75 554.34,-60.13 599.75,-59 710.11,-56.24 837.58,-54.12 918.63,-52.9"/>
<polygon fill="black" stroke="black" points="918.3,-56.41 928.24,-52.76 918.19,-49.41 918.3,-56.41"/>
<text text-anchor="middle" x="687.62" y="-61.2" font-family="Times New Roman,serif" font-size="14.00">Start / stop</text>
</g>
<!-- offline -->
<g id="node5" class="node">
<title>offline</title>
<polygon fill="none" stroke="black" points="1365.5,-39.5 1206.25,-39.5 1206.25,0 1365.5,0 1365.5,-39.5"/>
<text text-anchor="middle" x="1285.88" y="-22.2" font-family="Times New Roman,serif" font-size="14.00">Terminal 4: offline verifier</text>
<text text-anchor="middle" x="1285.88" y="-6.45" font-family="Times New Roman,serif" font-size="14.00">Epochs / plots / baseline</text>
</g>
<!-- bridge&#45;&gt;offline -->
<g id="edge7" class="edge">
<title>bridge&#45;&gt;offline</title>
<path fill="none" stroke="black" d="M462.94,-56.53C468.88,-55.9 474.78,-55.29 480.5,-54.75 679.89,-35.81 729.87,-30.71 930,-22.75 1019.99,-19.17 1122.92,-18.7 1194.67,-18.96"/>
<polygon fill="black" stroke="black" points="1194.38,-22.45 1204.4,-19 1194.41,-15.45 1194.38,-22.45"/>
<text text-anchor="middle" x="852.75" y="-32.2" font-family="Times New Roman,serif" font-size="14.00">Journal + profile</text>
</g>
<!-- app&#45;&gt;bridge -->
<g id="edge3" class="edge">
<title>app&#45;&gt;bridge</title>
<path fill="none" stroke="black" d="M602.4,-83.53C595.44,-82.21 588.49,-81.01 581.75,-80 546.68,-74.77 507.75,-71.43 474.03,-69.31"/>
<polygon fill="black" stroke="black" points="474.51,-65.84 464.32,-68.73 474.1,-72.82 474.51,-65.84"/>
<text text-anchor="middle" x="531.12" y="-82.2" font-family="Times New Roman,serif" font-size="14.00">Committed events</text>
</g>
<!-- app&#45;&gt;raw -->
<g id="edge4" class="edge">
<title>app&#45;&gt;raw</title>
<path fill="none" stroke="black" d="M775.98,-89.2C820.61,-81.76 874.61,-72.77 918.49,-65.46"/>
<polygon fill="black" stroke="black" points="918.92,-68.93 928.21,-63.84 917.77,-62.03 918.92,-68.93"/>
<text text-anchor="middle" x="852.75" y="-87.2" font-family="Times New Roman,serif" font-size="14.00">Original tap payloads</text>
</g>
<!-- raw&#45;&gt;offline -->
<g id="edge6" class="edge">
<title>raw&#45;&gt;offline</title>
<path fill="none" stroke="black" d="M1073.94,-43.68C1110.56,-39.52 1155.59,-34.41 1194.63,-29.99"/>
<polygon fill="black" stroke="black" points="1194.95,-33.47 1204.5,-28.87 1194.17,-26.52 1194.95,-33.47"/>
<text text-anchor="middle" x="1139.88" y="-44.2" font-family="Times New Roman,serif" font-size="14.00">Immutable HDF5</text>
</g>
</g>
</svg>
