<?xml version="1.0" encoding="UTF-8" standalone="no"?>
<!DOCTYPE svg PUBLIC "-//W3C//DTD SVG 1.1//EN"
 "http://www.w3.org/Graphics/SVG/1.1/DTD/svg11.dtd">
<!-- Generated by graphviz version 10.0.1 (20240210.2158)
 -->
<!-- Title: inner_001 Pages: 1 -->
<svg width="814pt" height="68pt"
 viewBox="0.00 0.00 814.28 67.75" xmlns="http://www.w3.org/2000/svg" xmlns:xlink="http://www.w3.org/1999/xlink">
<g id="graph0" class="graph" transform="scale(1 1) rotate(0) translate(4 63.75)">
<title>inner_001</title>
<polygon fill="white" stroke="none" points="-4,4 -4,-63.75 810.28,-63.75 810.28,4 -4,4"/>
<text text-anchor="middle" x="403.14" y="-42.45" font-family="Times New Roman,serif" font-size="14.00">wireless&#45;batch&#45;data&#45;flow: inner view 1</text>
<!-- l2cap -->
<g id="node1" class="node">
<title>l2cap</title>
<path fill="#f2fff0" stroke="#4b8a4b" d="M73.53,-36C73.53,-36 12,-36 12,-36 6,-36 0,-30 0,-24 0,-24 0,-12 0,-12 0,-6 6,0 12,0 12,0 73.53,0 73.53,0 79.53,0 85.53,-6 85.53,-12 85.53,-12 85.53,-24 85.53,-24 85.53,-30 79.53,-36 73.53,-36"/>
<text text-anchor="middle" x="42.77" y="-20.5" font-family="Arial" font-size="10.00">Wireless device</text>
<text text-anchor="middle" x="42.77" y="-8.5" font-family="Arial" font-size="10.00">L2CAP batches</text>
</g>
<!-- gateway -->
<g id="node2" class="node">
<title>gateway</title>
<path fill="#f2fff0" stroke="#4b8a4b" d="M266.65,-36C266.65,-36 178.88,-36 178.88,-36 172.88,-36 166.88,-30 166.88,-24 166.88,-24 166.88,-12 166.88,-12 166.88,-6 172.88,0 178.88,0 178.88,0 266.65,0 266.65,0 272.65,0 278.65,-6 278.65,-12 278.65,-12 278.65,-24 278.65,-24 278.65,-30 272.65,-36 266.65,-36"/>
<text text-anchor="middle" x="222.76" y="-20.5" font-family="Arial" font-size="10.00">External gateway</text>
<text text-anchor="middle" x="222.76" y="-8.5" font-family="Arial" font-size="10.00">phone / tablet / laptop</text>
</g>
<!-- l2cap&#45;&gt;gateway -->
<g id="edge1" class="edge">
<title>l2cap&#45;&gt;gateway</title>
<path fill="none" stroke="#476b8a" d="M85.88,-18C106.62,-18 131.96,-18 155.18,-18"/>
<polygon fill="#476b8a" stroke="#476b8a" points="154.86,-21.5 164.86,-18 154.86,-14.5 154.86,-21.5"/>
<text text-anchor="middle" x="125.72" y="-9.45" font-family="Arial" font-size="9.00">source batches</text>
</g>
<!-- pub -->
<g id="node3" class="node">
<title>pub</title>
<path fill="#eef5ff" stroke="#356a9a" d="M433.15,-36C433.15,-36 372.38,-36 372.38,-36 366.38,-36 360.38,-30 360.38,-24 360.38,-24 360.38,-12 360.38,-12 360.38,-6 366.38,0 372.38,0 372.38,0 433.15,0 433.15,0 439.15,0 445.15,-6 445.15,-12 445.15,-12 445.15,-24 445.15,-24 445.15,-30 439.15,-36 433.15,-36"/>
<text text-anchor="middle" x="402.76" y="-20.5" font-family="Arial" font-size="10.00">ZeroMQ PUB</text>
<text text-anchor="middle" x="402.76" y="-8.5" font-family="Arial" font-size="10.00">topic + protobuf</text>
</g>
<!-- gateway&#45;&gt;pub -->
<g id="edge2" class="edge">
<title>gateway&#45;&gt;pub</title>
<path fill="none" stroke="#476b8a" d="M278.73,-18C301.05,-18 326.65,-18 348.77,-18"/>
<polygon fill="#476b8a" stroke="#476b8a" points="348.48,-21.5 358.48,-18 348.48,-14.5 348.48,-21.5"/>
<text text-anchor="middle" x="319.43" y="-9.45" font-family="Arial" font-size="9.00">WirelessBatch v1</text>
</g>
<!-- readers -->
<g id="node4" class="node">
<title>readers</title>
<path fill="#eef5ff" stroke="#356a9a" d="M616.91,-36C616.91,-36 548.62,-36 548.62,-36 542.62,-36 536.62,-30 536.62,-24 536.62,-24 536.62,-12 536.62,-12 536.62,-6 542.62,0 548.62,0 548.62,0 616.91,0 616.91,0 622.91,0 628.91,-6 628.91,-12 628.91,-12 628.91,-24 628.91,-24 628.91,-30 622.91,-36 616.91,-36"/>
<text text-anchor="middle" x="582.76" y="-20.5" font-family="Arial" font-size="10.00">Four independent</text>
<text text-anchor="middle" x="582.76" y="-8.5" font-family="Arial" font-size="10.00">SUB readers</text>
</g>
<!-- pub&#45;&gt;readers -->
<g id="edge3" class="edge">
<title>pub&#45;&gt;readers</title>
<path fill="none" stroke="#476b8a" d="M445.42,-18C469.24,-18 499.24,-18 525.12,-18"/>
<polygon fill="#476b8a" stroke="#476b8a" points="524.8,-21.5 534.8,-18 524.8,-14.5 524.8,-21.5"/>
<text text-anchor="middle" x="472.19" y="-20.7" font-family="Arial" font-size="9.00">LAN TCP</text>
</g>
<!-- mux -->
<g id="node5" class="node">
<title>mux</title>
<path fill="#eef5ff" stroke="#356a9a" d="M794.28,-36C794.28,-36 731.25,-36 731.25,-36 725.25,-36 719.25,-30 719.25,-24 719.25,-24 719.25,-12 719.25,-12 719.25,-6 725.25,0 731.25,0 731.25,0 794.28,0 794.28,0 800.28,0 806.28,-6 806.28,-12 806.28,-12 806.28,-24 806.28,-24 806.28,-30 800.28,-36 794.28,-36"/>
<text text-anchor="middle" x="762.76" y="-20.5" font-family="Arial" font-size="10.00">App&#45;owned</text>
<text text-anchor="middle" x="762.76" y="-8.5" font-family="Arial" font-size="10.00">round&#45;robin mux</text>
</g>
<!-- readers&#45;&gt;mux -->
<g id="edge4" class="edge">
<title>readers&#45;&gt;mux</title>
<path fill="none" stroke="#476b8a" d="M629.12,-18C653.15,-18 682.65,-18 707.82,-18"/>
<polygon fill="#476b8a" stroke="#476b8a" points="707.53,-21.5 717.53,-18 707.53,-14.5 707.53,-21.5"/>
<text text-anchor="middle" x="673.75" y="-9.45" font-family="Arial" font-size="9.00">nonblocking receive</text>
</g>
</g>
</svg>
